<svg xmlns="http://www.w3.org/2000/svg" width="300" height="33.82" viewBox="0 0 300 33.82"><defs><style>.a{fill:#3fd78d;}</style></defs><title>tanakaev-logo-black</title><path d="M19.57,133.62v6.8H12.24v15.85a3.13,3.13,0,0,0,.8,2.39,3.88,3.88,0,0,0,2.69.74h3.84v7h-5.2q-10.47,0-10.47-10.17V140.42H0v-6.8Z" transform="translate(0 -133.09)"/><path d="M25.39,141.07a14.57,14.57,0,0,1,5.38-5.91,14.33,14.33,0,0,1,7.6-2.07,13.32,13.32,0,0,1,6.42,1.48,13,13,0,0,1,4.4,3.72v-4.67h8.34v32.76H49.19v-4.79a12.2,12.2,0,0,1-4.4,3.81,13.45,13.45,0,0,1-6.48,1.51,13.92,13.92,0,0,1-7.54-2.13,15,15,0,0,1-5.38-6,19.28,19.28,0,0,1-2-8.9A19,19,0,0,1,25.39,141.07ZM48,144.83a8.28,8.28,0,0,0-3.19-3.31,8.53,8.53,0,0,0-4.32-1.16,8.38,8.38,0,0,0-4.26,1.13,8.47,8.47,0,0,0-3.16,3.28,10.25,10.25,0,0,0-1.21,5.11,10.63,10.63,0,0,0,1.21,5.18,8.71,8.71,0,0,0,3.19,3.39,8.11,8.11,0,0,0,4.23,1.19,8.53,8.53,0,0,0,4.32-1.16A8.28,8.28,0,0,0,48,155.17a11.92,11.92,0,0,0,0-10.34Z" transform="translate(0 -133.09)"/><path d="M93.24,136.85q3.6,3.69,3.61,10.31v19.22H88.57V148.29a8.51,8.51,0,0,0-1.95-6,6.94,6.94,0,0,0-5.32-2.09,7.1,7.1,0,0,0-5.41,2.09,8.42,8.42,0,0,0-2,6v18.09H65.63V133.62h8.28v4.08a11.43,11.43,0,0,1,4.22-3.34,13.08,13.08,0,0,1,5.65-1.21A12.6,12.6,0,0,1,93.24,136.85Z" transform="translate(0 -133.09)"/><path d="M104.56,141.07a14.57,14.57,0,0,1,5.38-5.91,14.33,14.33,0,0,1,7.6-2.07,13.34,13.34,0,0,1,6.42,1.48,13,13,0,0,1,4.4,3.72v-4.67h8.34v32.76h-8.34v-4.79a12.2,12.2,0,0,1-4.4,3.81,13.45,13.45,0,0,1-6.48,1.51,13.92,13.92,0,0,1-7.54-2.13,15,15,0,0,1-5.38-6,19.28,19.28,0,0,1-2-8.9A19,19,0,0,1,104.56,141.07Zm22.62,3.76a8.34,8.34,0,0,0-3.19-3.31,8.56,8.56,0,0,0-4.32-1.16,8.38,8.38,0,0,0-4.26,1.13,8.47,8.47,0,0,0-3.16,3.28,10.25,10.25,0,0,0-1.21,5.11,10.63,10.63,0,0,0,1.21,5.18,8.71,8.71,0,0,0,3.19,3.39,8.11,8.11,0,0,0,4.23,1.19,8.56,8.56,0,0,0,4.32-1.16,8.34,8.34,0,0,0,3.19-3.31,11.92,11.92,0,0,0,0-10.34Z" transform="translate(0 -133.09)"/><path d="M164.19,166.58l-11.11-14v14H144.8v-33h8.28v14.1l11-14.1h10.76l-14.42,16.64L175,166.58Z" transform="translate(0 -133.09)"/><path d="M179.18,141.07a14.5,14.5,0,0,1,5.38-5.91,14.33,14.33,0,0,1,7.6-2.07,13.28,13.28,0,0,1,6.41,1.48,13,13,0,0,1,4.41,3.72v-4.67h8.33v32.76H203v-4.79a12.31,12.31,0,0,1-4.41,3.81,13.41,13.41,0,0,1-6.47,1.51,13.92,13.92,0,0,1-7.54-2.13,14.88,14.88,0,0,1-5.38-6,19.28,19.28,0,0,1-2-8.9A19,19,0,0,1,179.18,141.07Zm22.61,3.76a8.21,8.21,0,0,0-3.19-3.31,8.52,8.52,0,0,0-4.31-1.16,8.33,8.33,0,0,0-7.42,4.41,10.25,10.25,0,0,0-1.22,5.11,10.63,10.63,0,0,0,1.22,5.18,8.64,8.64,0,0,0,3.19,3.39,8.11,8.11,0,0,0,4.23,1.19,8.52,8.52,0,0,0,4.31-1.16,8.21,8.21,0,0,0,3.19-3.31,11.83,11.83,0,0,0,0-10.34Z" transform="translate(0 -133.09)"/><path d="M249.63,152.48H225.68a8.14,8.14,0,0,0,2.48,5.56,7.66,7.66,0,0,0,5.38,2,6.76,6.76,0,0,0,6.57-4H249a14.8,14.8,0,0,1-5.44,7.77,15.81,15.81,0,0,1-9.87,3,17.06,17.06,0,0,1-8.48-2.1,14.76,14.76,0,0,1-5.86-5.94,18.2,18.2,0,0,1-2.1-8.87,18.54,18.54,0,0,1,2.07-8.93,14.48,14.48,0,0,1,5.8-5.91,18.6,18.6,0,0,1,16.94-.06,14.13,14.13,0,0,1,5.73,5.71,17.25,17.25,0,0,1,2,8.48A20.41,20.41,0,0,1,249.63,152.48Zm-8.34-5.55a6.57,6.57,0,0,0-2.31-5.12,8.17,8.17,0,0,0-5.49-1.92,7.54,7.54,0,0,0-5.18,1.86,8.16,8.16,0,0,0-2.57,5.18Z" transform="translate(0 -133.09)"/><path d="M269.55,158.75l8.28-25.13h8.81l-12.12,32.76h-10l-12.06-32.76h8.86Z" transform="translate(0 -133.09)"/><path class="a" d="M291.28,165.4a4.85,4.85,0,0,1,0-6.92,5.16,5.16,0,0,1,3.7-1.39,5,5,0,0,1,3.6,1.39,4.93,4.93,0,0,1,0,6.92,4.92,4.92,0,0,1-3.6,1.39A5.12,5.12,0,0,1,291.28,165.4Z" transform="translate(0 -133.09)"/></svg>