<svg width="835" height="663" viewBox="0 0 835 663" fill="none" xmlns="http://www.w3.org/2000/svg">
<path d="M596.624 370.682V596.243L634.353 657.731L637.225 662.408H786.095L789.103 370.682H596.624Z" fill="#E6E6E6"/>
<path opacity="0.1" d="M596.624 370.682V596.243L634.353 657.731L636.669 370.682H596.624Z" fill="black"/>
<path d="M237.23 364.666V590.228L199.5 651.716L196.629 656.392H47.7589L44.751 364.666H237.23Z" fill="#E6E6E6"/>
<path opacity="0.1" d="M237.229 364.666V590.228L199.5 651.716L197.185 364.666H237.229Z" fill="black"/>
<path d="M834.215 360.156V373.689H25.2021V354.14L100.389 315.043H768.051L834.215 360.156Z" fill="#E6E6E6"/>
<path opacity="0.1" d="M834.215 360.156V373.689H25.2021V354.14L834.215 360.156Z" fill="black"/>
<path d="M140.991 427.824H104.901L89.8633 417.298H157.532L140.991 427.824Z" fill="#3F3D56"/>
<path d="M140.991 471.432H104.901L89.8633 460.906H157.532L140.991 471.432Z" fill="#3F3D56"/>
<path d="M140.991 533.086H104.901L89.8633 522.559H157.532L140.991 533.086Z" fill="#3F3D56"/>
<path d="M140.991 594.739H104.901L89.8633 584.213H157.532L140.991 594.739Z" fill="#3F3D56"/>
<path d="M692.863 433.838H728.954L743.991 423.312H676.322L692.863 433.838Z" fill="#3F3D56"/>
<path d="M692.863 477.447H728.954L743.991 466.921H676.322L692.863 477.447Z" fill="#3F3D56"/>
<path d="M692.863 539.101H728.954L743.991 528.575H676.322L692.863 539.101Z" fill="#3F3D56"/>
<path d="M692.863 600.754H728.954L743.991 590.228H676.322L692.863 600.754Z" fill="#3F3D56"/>
<path d="M717.44 54.2045H413.613C412.104 54.2043 410.61 54.5014 409.216 55.0788C407.822 55.6562 406.555 56.5025 405.488 57.5695C404.421 58.6366 403.575 59.9033 402.997 61.2975C402.42 62.6916 402.123 64.1859 402.123 65.6949V270.36C402.123 271.869 402.42 273.363 402.997 274.757C403.575 276.152 404.421 277.418 405.488 278.485C406.555 279.552 407.822 280.399 409.216 280.976C410.61 281.553 412.104 281.851 413.613 281.85H528.948L524.627 309.438C524.627 309.438 499.934 322.557 517.296 322.942C534.659 323.328 616.457 322.942 616.457 322.942C616.457 322.942 632.277 322.942 607.197 309.052L603.133 281.85H717.44C718.949 281.851 720.443 281.553 721.837 280.976C723.231 280.399 724.498 279.552 725.565 278.485C726.632 277.418 727.478 276.152 728.056 274.757C728.633 273.363 728.93 271.869 728.93 270.36V65.6949C728.93 64.1859 728.633 62.6916 728.056 61.2975C727.478 59.9033 726.632 58.6366 725.565 57.5695C724.498 56.5025 723.231 55.6562 721.837 55.0788C720.443 54.5014 718.949 54.2043 717.44 54.2045Z" fill="#3F3D56"/>
<path d="M717.934 66.3585H413.12V236.9H717.934V66.3585Z" fill="#F2F2F2"/>
<path d="M565.526 62.886C566.591 62.886 567.455 62.0223 567.455 60.9568C567.455 59.8913 566.591 59.0276 565.526 59.0276C564.46 59.0276 563.597 59.8913 563.597 60.9568C563.597 62.0223 564.46 62.886 565.526 62.886Z" fill="#F2F2F2"/>
<path d="M565.526 273.555C569.575 273.555 572.857 270.273 572.857 266.224C572.857 262.175 569.575 258.893 565.526 258.893C561.477 258.893 558.195 262.175 558.195 266.224C558.195 270.273 561.477 273.555 565.526 273.555Z" fill="#F2F2F2"/>
<path d="M554.103 343.778V347.637H346.521V344.55L346.807 343.778L351.923 329.888H549.859L554.103 343.778Z" fill="#3F3D56"/>
<path d="M633.987 340C633.609 341.617 632.182 343.322 628.956 344.935C617.381 350.723 593.844 343.392 593.844 343.392C593.844 343.392 575.71 340.305 575.71 332.203C576.219 331.854 576.75 331.538 577.3 331.257C582.166 328.683 598.302 322.329 626.913 331.526C629.02 332.188 630.903 333.422 632.351 335.09C632.993 335.721 633.475 336.495 633.76 337.348C634.044 338.202 634.122 339.111 633.987 340Z" fill="#3F3D56"/>
<path opacity="0.1" d="M633.987 340C619.819 345.429 607.191 345.834 594.23 336.833C589.329 333.209 583.395 331.255 577.3 331.257C582.166 328.683 598.302 322.329 626.913 331.526C629.021 332.188 630.903 333.422 632.351 335.09C632.993 335.721 633.475 336.495 633.76 337.348C634.044 338.202 634.122 339.111 633.987 340Z" fill="black"/>
<path d="M616.223 336.833C618.993 336.833 621.239 336.142 621.239 335.289C621.239 334.437 618.993 333.746 616.223 333.746C613.453 333.746 611.207 334.437 611.207 335.289C611.207 336.142 613.453 336.833 616.223 336.833Z" fill="#F2F2F2"/>
<path opacity="0.1" d="M554.103 343.778V347.637H346.521V344.55L346.807 343.778H554.103Z" fill="black"/>
<path d="M196.749 174.504C196.758 173.327 196.523 172.162 196.059 171.08C195.596 169.997 194.915 169.022 194.057 168.215C193.199 167.408 192.184 166.786 191.075 166.388C189.966 165.99 188.787 165.825 187.611 165.903C186.435 165.98 185.288 166.299 184.241 166.839C183.194 167.379 182.27 168.129 181.526 169.042C180.782 169.955 180.235 171.011 179.918 172.144C179.602 173.278 179.522 174.464 179.685 175.629L155.054 207.838C154.003 209.937 153.595 212.299 153.882 214.628C154.17 216.957 155.139 219.15 156.668 220.932L158.6 223.182L167.466 221.412L177.514 212.559L176.331 202.526L188.743 183.051L188.727 183.037C190.9 182.898 192.939 181.939 194.429 180.355C195.919 178.77 196.748 176.678 196.749 174.504Z" fill="#FFB9B9"/>
<path d="M26.4153 331.967L22.3945 317.056L78.0789 294.476L84.013 316.482L26.4153 331.967Z" fill="#FFB8B8"/>
<path d="M12.9637 339.661L0 291.583L0.609003 291.419C5.57936 290.083 10.8777 290.773 15.3385 293.337C19.7994 295.902 23.0575 300.13 24.3961 305.093L24.3965 305.094L32.3141 334.459L12.9637 339.661Z" fill="#2F2E41"/>
<path d="M103.116 329.584L90.6094 320.502L119.74 268.011L138.199 281.415L103.116 329.584Z" fill="#FFB8B8"/>
<path d="M97.4907 344.006L57.1631 314.722L57.534 314.213C60.5615 310.056 65.1186 307.27 70.2029 306.468C75.2872 305.667 80.4822 306.914 84.6454 309.937L84.6464 309.937L109.277 327.823L97.4907 344.006Z" fill="#2F2E41"/>
<path d="M209.431 256.232L177.958 225.703C175.211 223.039 171.593 221.455 167.77 221.241C163.946 221.028 160.174 222.2 157.148 224.543L97.7227 290.462L103.042 298.724L159.782 260.363L198.201 310.528L234.845 292.233L209.431 256.232Z" fill="#2F2E41"/>
<path d="M195.836 262.724L172.785 260.953L156.092 256.912C155.149 255.443 153.779 254.297 152.166 253.627C150.553 252.957 148.773 252.795 147.065 253.163C145.357 253.531 143.802 254.411 142.609 255.685C141.416 256.96 140.641 258.568 140.388 260.294C140.135 262.021 140.417 263.783 141.195 265.345C141.973 266.907 143.21 268.195 144.741 269.035C146.272 269.876 148.024 270.23 149.762 270.049C151.5 269.868 153.141 269.161 154.465 268.023L154.463 268.035L164.511 272.166L207.657 286.921L212.977 282.79L195.836 262.724Z" fill="#FFB9B9"/>
<path d="M251.395 326.463L238.392 334.725H223.024L151.508 308.167L46.8926 327.053L43.9375 304.626L139.687 262.724L223.616 290.462L251.395 326.463Z" fill="#2F2E41"/>
<path d="M223.614 183.051C236.345 183.051 246.665 172.746 246.665 160.034C246.665 147.322 236.345 137.017 223.614 137.017C210.884 137.017 200.563 147.322 200.563 160.034C200.563 172.746 210.884 183.051 223.614 183.051Z" fill="#FFB9B9"/>
<path d="M283.258 251.93C283.258 265.82 281.066 279.625 276.762 292.834L275.036 298.134L266.762 335.905L257.896 338.266L251.395 330.003L238.392 320.561L228.935 305.216L220.826 291.725L218.296 287.511L209.43 243.248L175.741 224.363L164.511 222.592L166.875 216.1L176.923 202.526L186.97 201.346L189.926 198.985L192.29 200.166L205.323 205.179L247.576 187.353L253.759 188.362L275.036 206.067C280.476 220.748 283.26 236.277 283.258 251.93Z" fill="#CCCCCC"/>
<path opacity="0.1" d="M276.808 246.789L254.349 261.543L220.825 291.724L218.295 287.511L211.202 252.101H212.976L231.298 218.462L276.808 246.789Z" fill="black"/>
<path d="M231.298 214.92L212.975 248.559L202.336 260.363L192.88 262.724L218.294 290.462L254.348 258.002L276.807 243.248L231.298 214.92Z" fill="#CCCCCC"/>
<path d="M205.685 142.92L203.187 143.879C202.808 143.623 202.483 143.295 202.231 142.913C201.979 142.531 201.805 142.104 201.718 141.655C201.632 141.206 201.635 140.744 201.727 140.297C201.819 139.849 201.998 139.423 202.255 139.045C202.268 139.025 202.282 139.005 202.296 138.986L197.681 138.77C200.643 134.83 204.41 131.563 208.732 129.185C213.054 126.808 217.832 125.373 222.75 124.978C227.669 124.582 232.615 125.233 237.263 126.889C241.91 128.545 246.152 131.167 249.709 134.583C249.919 133.86 252.209 135.266 253.145 136.692C253.459 135.516 255.607 141.2 256.366 145.218C256.718 143.88 258.07 146.04 256.885 148.112C257.636 148.003 257.975 149.92 257.394 150.989C258.215 150.604 258.077 152.893 257.186 154.422C258.358 154.318 257.086 178.418 239.502 176.662C238.277 171.045 238.622 171.394 237.181 164.172C236.51 163.461 235.775 162.813 235.041 162.166L231.074 158.669C226.46 154.603 222.263 149.584 216.117 148.064C211.893 147.02 209.222 146.784 211.524 142.031C209.445 142.898 207.502 144.187 205.404 144.991C205.432 144.327 205.726 143.584 205.685 142.92Z" fill="#2F2E41"/>
<path d="M235.14 166.821C237.425 166.821 239.278 164.971 239.278 162.69C239.278 160.408 237.425 158.558 235.14 158.558C232.855 158.558 231.003 160.408 231.003 162.69C231.003 164.971 232.855 166.821 235.14 166.821Z" fill="#FFB9B9"/>
<path d="M42.2011 65.1191L40.9385 84.0497L59.8971 85.3104L61.1597 66.3799L42.2011 65.1191Z" fill="#E6E6E6"/>
<path d="M29.9696 75.1711L52.9908 76.702L51.4577 99.6891L28.4365 98.1582L29.9696 75.1711ZM51.9232 77.6349L30.9039 76.2371L29.5041 97.2253L50.5234 98.623L51.9232 77.6349Z" fill="#3FD78D"/>
<path d="M149.339 8.98439L130.763 12.97L134.754 31.5191L153.331 27.5335L149.339 8.98439Z" fill="#E6E6E6"/>
<path d="M136.303 0L141.15 22.5239L118.593 27.3636L113.746 4.83971L136.303 0ZM139.959 21.755L135.533 1.18973L114.938 5.60858L119.363 26.1739L139.959 21.755Z" fill="#3FD78D"/>
<path d="M129.82 98.064L115.953 111.034L128.942 124.881L142.81 111.911L129.82 98.064Z" fill="#E6E6E6"/>
<path d="M143.807 96.1235L126.968 111.873L111.195 95.0587L128.034 79.3095L143.807 96.1235ZM127.014 110.457L142.389 96.0772L127.988 80.7253L112.613 95.105L127.014 110.457Z" fill="#3FD78D"/>
<path d="M752.63 281.285C751.835 272.685 751.625 263.972 752.004 255.299L752.63 240.945C749.179 251.974 749.959 266.49 752.63 281.285Z" fill="#CACACA"/>
<path d="M758.393 283.59C757.598 278.417 757.388 273.2 757.767 267.998L758.393 259.386C754.942 266.003 755.722 274.713 758.393 283.59Z" fill="#CACACA"/>
<path d="M776.834 294.268V299.127C776.832 299.513 776.679 299.883 776.408 300.156C776.137 300.429 775.77 300.583 775.387 300.585H772.975C772.911 300.585 772.848 300.597 772.79 300.621C772.731 300.646 772.678 300.682 772.633 300.727C772.588 300.772 772.553 300.826 772.528 300.885C772.504 300.944 772.492 301.007 772.492 301.071V340.914C772.49 341.3 772.337 341.669 772.066 341.942C771.795 342.215 771.428 342.369 771.045 342.371H741.614C741.23 342.371 740.862 342.217 740.591 341.944C740.319 341.671 740.167 341.3 740.166 340.914V301.071C740.166 300.942 740.115 300.819 740.025 300.728C739.934 300.637 739.812 300.585 739.684 300.585H736.789C736.405 300.585 736.037 300.431 735.766 300.158C735.495 299.884 735.342 299.514 735.342 299.127V294.268C735.342 294.077 735.379 293.887 735.451 293.71C735.524 293.533 735.631 293.372 735.765 293.237C735.9 293.102 736.059 292.994 736.235 292.921C736.411 292.848 736.599 292.81 736.789 292.811H775.387C775.771 292.812 776.138 292.966 776.409 293.239C776.68 293.512 776.833 293.882 776.834 294.268Z" fill="#F2F2F2"/>
<path d="M772.224 302.031H741.104V303.184H772.224V302.031Z" fill="#E6E6E6"/>
<path d="M772.224 323.797C761.584 328.559 750.828 328.611 739.952 323.797V312.951C750.422 309.149 761.754 309.149 772.224 312.951V323.797Z" fill="#3F3D56"/>
<path d="M718.053 66.9064H413.773V237.487H718.053V66.9064Z" fill="white"/>
<g id="matrix">
<path d="M467.142 91.0201H464.338V95.5063H467.142V91.0201Z" fill="#3FD78D"/>
<path d="M476.676 89.8986H473.872V94.3848H476.676V89.8986Z" fill="#3FD78D"/>
<path d="M481.722 89.8986H478.918V94.3848H481.722V89.8986Z" fill="#3FD78D"/>
<path d="M481.722 103.357H478.918V107.843H481.722V103.357Z" fill="#3FD78D"/>
<path d="M487.33 96.6278H484.526V101.114H487.33V96.6278Z" fill="#3FD78D"/>
<path d="M487.33 103.918H484.526V108.404H487.33V103.918Z" fill="#3FD78D"/>
<path d="M481.722 117.938H478.918V122.424H481.722V117.938Z" fill="#3FD78D"/>
<path d="M487.33 125.228H484.526V129.714H487.33V125.228Z" fill="#3FD78D"/>
<path d="M481.722 152.706H478.918V157.192H481.722V152.706Z" fill="#3FD78D"/>
<path d="M476.676 125.228H473.872V129.714H476.676V125.228Z" fill="#3FD78D"/>
<path d="M467.142 98.3102H464.338V102.796H467.142V98.3102Z" fill="#3FD78D"/>
<path d="M467.142 168.408H464.338V172.894H467.142V168.408Z" fill="#3FD78D"/>
<path d="M467.142 182.988H464.338V187.474H467.142V182.988Z" fill="#3FD78D"/>
<path d="M467.142 190.278H464.338V194.765H467.142V190.278Z" fill="#3FD78D"/>
<path d="M467.141 106.161H463.216V106.722H467.141V106.161Z" fill="#3FD78D"/>
<path d="M482.284 112.891H478.358V113.451H482.284V112.891Z" fill="#3FD78D"/>
<path d="M467.141 142.051H463.216V142.612H467.141V142.051Z" fill="#3FD78D"/>
<path d="M467.141 148.22H463.216V148.78H467.141V148.22Z" fill="#3FD78D"/>
<path d="M482.284 184.11H478.358V184.67H482.284V184.11Z" fill="#3FD78D"/>
<path d="M477.798 197.568H473.872V198.129H477.798V197.568Z" fill="#3FD78D"/>
<path d="M464.338 111.208V112.33H465.459V114.573H464.338V115.694H467.142V111.208H464.338Z" fill="#3FD78D"/>
<path d="M473.872 103.357V104.479H474.993V106.722H473.872V107.843H476.676V103.357H473.872Z" fill="#3FD78D"/>
<path d="M484.526 110.647V111.769H485.648V114.012H484.526V115.134H487.33V110.647H484.526Z" fill="#3FD78D"/>
<path d="M484.526 132.518V133.639H485.648V135.883H484.526V137.004H487.33V132.518H484.526Z" fill="#3FD78D"/>
<path d="M484.526 139.808V140.93H485.648V143.173H484.526V144.294H487.33V139.808H484.526Z" fill="#3FD78D"/>
<path d="M484.526 117.377V118.498H485.648V120.741H484.526V121.863H487.33V117.377H484.526Z" fill="#3FD78D"/>
<path d="M478.918 96.6277V97.7495H480.04V99.9923H478.918V101.114H481.722V96.6277H478.918Z" fill="#3FD78D"/>
<path d="M481.722 132.518H478.918V137.004H481.722V132.518Z" fill="#3FD78D"/>
<path d="M481.722 145.977H478.918V150.463H481.722V145.977Z" fill="#3FD78D"/>
<path d="M478.918 139.247V140.369H480.04V142.612H478.918V143.733H481.722V139.247H478.918Z" fill="#3FD78D"/>
<path d="M473.872 110.647V111.769H474.993V114.012H473.872V115.134H476.676V110.647H473.872Z" fill="#3FD78D"/>
<path d="M473.872 117.938V119.059H474.993V121.302H473.872V122.424H476.676V117.938H473.872Z" fill="#3FD78D"/>
<path d="M476.676 139.808H473.872V144.294H476.676V139.808Z" fill="#3FD78D"/>
<path d="M473.872 132.518V133.639H474.993V135.883H473.872V137.004H476.676V132.518H473.872Z" fill="#3FD78D"/>
<path d="M476.676 154.388H473.872V158.874H476.676V154.388Z" fill="#3FD78D"/>
<path d="M473.872 147.098V148.219H474.993V150.463H473.872V151.584H476.676V147.098H473.872Z" fill="#3FD78D"/>
<path d="M476.676 168.969H473.872V173.455H476.676V168.969Z" fill="#3FD78D"/>
<path d="M481.722 167.847H478.918V172.333H481.722V167.847Z" fill="#3FD78D"/>
<path d="M473.872 161.678V162.8H474.993V165.043H473.872V166.165H476.676V161.678H473.872Z" fill="#3FD78D"/>
<path d="M484.526 161.678V162.8H485.648V165.043H484.526V166.165H487.33V161.678H484.526Z" fill="#3FD78D"/>
<path d="M515.931 96.6278H513.127V101.114H515.931V96.6278Z" fill="#3FD78D"/>
<path d="M515.931 103.918H513.127V108.404H515.931V103.918Z" fill="#3FD78D"/>
<path d="M515.931 125.228H513.127V129.714H515.931V125.228Z" fill="#3FD78D"/>
<path d="M513.127 110.647V111.769H514.249V114.012H513.127V115.134H515.931V110.647H513.127Z" fill="#3FD78D"/>
<path d="M513.127 132.518V133.639H514.249V135.883H513.127V137.004H515.931V132.518H513.127Z" fill="#3FD78D"/>
<path d="M513.127 139.808V140.93H514.249V143.173H513.127V144.294H515.931V139.808H513.127Z" fill="#3FD78D"/>
<path d="M513.127 117.377V118.498H514.249V120.741H513.127V121.863H515.931V117.377H513.127Z" fill="#3FD78D"/>
<path d="M513.127 161.678V162.8H514.249V165.043H513.127V166.165H515.931V161.678H513.127Z" fill="#3FD78D"/>
<path d="M476.676 183.549H473.872V188.035H476.676V183.549Z" fill="#3FD78D"/>
<path d="M481.722 175.137H478.918V179.623H481.722V175.137Z" fill="#3FD78D"/>
<path d="M476.676 202.615H473.872V207.102H476.676V202.615Z" fill="#3FD78D"/>
<path d="M481.722 189.157H478.918V193.643H481.722V189.157Z" fill="#3FD78D"/>
<path d="M473.872 176.259V177.38H474.993V179.623H473.872V180.745H476.676V176.259H473.872Z" fill="#3FD78D"/>
<path d="M473.872 210.466V211.588H474.993V213.831H473.872V214.952H476.676V210.466H473.872Z" fill="#3FD78D"/>
<path d="M507.518 89.8986H504.714V94.3848H507.518V89.8986Z" fill="#3FD78D"/>
<path d="M507.518 125.228H504.714V129.714H507.518V125.228Z" fill="#3FD78D"/>
<path d="M508.639 197.568H504.714V198.129H508.639V197.568Z" fill="#3FD78D"/>
<path d="M504.714 103.357V104.479H505.836V106.722H504.714V107.843H507.518V103.357H504.714Z" fill="#3FD78D"/>
<path d="M504.714 110.647V111.769H505.836V114.012H504.714V115.134H507.518V110.647H504.714Z" fill="#3FD78D"/>
<path d="M504.714 117.938V119.059H505.836V121.302H504.714V122.424H507.518V117.938H504.714Z" fill="#3FD78D"/>
<path d="M507.518 139.808H504.714V144.294H507.518V139.808Z" fill="#3FD78D"/>
<path d="M504.714 132.518V133.639H505.836V135.883H504.714V137.004H507.518V132.518H504.714Z" fill="#3FD78D"/>
<path d="M507.518 154.388H504.714V158.874H507.518V154.388Z" fill="#3FD78D"/>
<path d="M504.714 147.098V148.219H505.836V150.463H504.714V151.584H507.518V147.098H504.714Z" fill="#3FD78D"/>
<path d="M507.518 168.969H504.714V173.455H507.518V168.969Z" fill="#3FD78D"/>
<path d="M504.714 161.678V162.8H505.836V165.043H504.714V166.165H507.518V161.678H504.714Z" fill="#3FD78D"/>
<path d="M507.518 183.549H504.714V188.035H507.518V183.549Z" fill="#3FD78D"/>
<path d="M507.518 202.615H504.714V207.102H507.518V202.615Z" fill="#3FD78D"/>
<path d="M504.714 176.259V177.38H505.836V179.623H504.714V180.745H507.518V176.259H504.714Z" fill="#3FD78D"/>
<path d="M504.714 210.466V211.588H505.836V213.831H504.714V214.952H507.518V210.466H504.714Z" fill="#3FD78D"/>
<path d="M520.978 89.8986H518.174V94.3848H520.978V89.8986Z" fill="#3FD78D"/>
<path d="M520.978 125.228H518.174V129.714H520.978V125.228Z" fill="#3FD78D"/>
<path d="M522.099 197.568H518.174V198.129H522.099V197.568Z" fill="#3FD78D"/>
<path d="M518.174 103.357V104.479H519.296V106.722H518.174V107.843H520.978V103.357H518.174Z" fill="#3FD78D"/>
<path d="M518.174 110.647V111.769H519.296V114.012H518.174V115.134H520.978V110.647H518.174Z" fill="#3FD78D"/>
<path d="M518.174 117.938V119.059H519.296V121.302H518.174V122.424H520.978V117.938H518.174Z" fill="#3FD78D"/>
<path d="M520.978 139.808H518.174V144.294H520.978V139.808Z" fill="#3FD78D"/>
<path d="M518.174 132.518V133.639H519.296V135.883H518.174V137.004H520.978V132.518H518.174Z" fill="#3FD78D"/>
<path d="M520.978 154.388H518.174V158.874H520.978V154.388Z" fill="#3FD78D"/>
<path d="M518.174 147.098V148.219H519.296V150.463H518.174V151.584H520.978V147.098H518.174Z" fill="#3FD78D"/>
<path d="M520.978 168.969H518.174V173.455H520.978V168.969Z" fill="#3FD78D"/>
<path d="M518.174 161.678V162.8H519.296V165.043H518.174V166.165H520.978V161.678H518.174Z" fill="#3FD78D"/>
<path d="M520.978 183.549H518.174V188.035H520.978V183.549Z" fill="#3FD78D"/>
<path d="M520.978 202.615H518.174V207.102H520.978V202.615Z" fill="#3FD78D"/>
<path d="M518.174 176.259V177.38H519.296V179.623H518.174V180.745H520.978V176.259H518.174Z" fill="#3FD78D"/>
<path d="M518.174 210.466V211.588H519.296V213.831H518.174V214.952H520.978V210.466H518.174Z" fill="#3FD78D"/>
<path d="M478.918 202.615V203.737H480.04V205.98H478.918V207.101H481.722V202.615H478.918Z" fill="#3FD78D"/>
<path d="M478.918 209.906V211.027H480.04V213.27H478.918V214.392H481.722V209.906H478.918Z" fill="#3FD78D"/>
<path d="M464.338 125.228V126.349H465.459V128.592H464.338V129.714H467.142V125.228H464.338Z" fill="#3FD78D"/>
<path d="M464.338 153.828V154.949H465.459V157.192H464.338V158.314H467.142V153.828H464.338Z" fill="#3FD78D"/>
<path d="M464.338 161.118V162.239H465.459V164.483H464.338V165.604H467.142V161.118H464.338Z" fill="#3FD78D"/>
<path d="M464.338 175.698V176.819H465.459V179.063H464.338V180.184H467.142V175.698H464.338Z" fill="#3FD78D"/>
<path d="M464.338 196.447V197.568H465.459V199.812H464.338V200.933H467.142V196.447H464.338Z" fill="#3FD78D"/>
<path d="M464.338 202.615V203.737H465.459V205.98H464.338V207.101H467.142V202.615H464.338Z" fill="#3FD78D"/>
<path d="M496.303 91.0201H493.499V95.5063H496.303V91.0201Z" fill="#3FD78D"/>
<path d="M496.303 98.3102H493.499V102.796H496.303V98.3102Z" fill="#3FD78D"/>
<path d="M496.303 106.161H492.378V106.722H496.303V106.161Z" fill="#3FD78D"/>
<path d="M496.303 142.051H492.378V142.612H496.303V142.051Z" fill="#3FD78D"/>
<path d="M496.303 148.22H492.378V148.78H496.303V148.22Z" fill="#3FD78D"/>
<path d="M493.499 111.208V112.33H494.62V114.573H493.499V115.694H496.303V111.208H493.499Z" fill="#3FD78D"/>
<path d="M493.499 125.228V126.349H494.62V128.592H493.499V129.714H496.303V125.228H493.499Z" fill="#3FD78D"/>
<path d="M493.499 153.828V154.949H494.62V157.192H493.499V158.314H496.303V153.828H493.499Z" fill="#3FD78D"/>
<path d="M528.268 139.808H525.464V144.294H528.268V139.808Z" fill="#3FD78D"/>
<path d="M528.268 147.098H525.464V151.584H528.268V147.098Z" fill="#3FD78D"/>
<path d="M528.267 154.949H524.342V155.51H528.267V154.949Z" fill="#3FD78D"/>
<path d="M528.267 190.839H524.342V191.4H528.267V190.839Z" fill="#3FD78D"/>
<path d="M528.267 197.008H524.342V197.568H528.267V197.008Z" fill="#3FD78D"/>
<path d="M525.464 159.996V161.118H526.585V163.361H525.464V164.482H528.268V159.996H525.464Z" fill="#3FD78D"/>
<path d="M525.464 174.016V175.137H526.585V177.38H525.464V178.502H528.268V174.016H525.464Z" fill="#3FD78D"/>
<path d="M525.464 202.615V203.737H526.585V205.98H525.464V207.101H528.268V202.615H525.464Z" fill="#3FD78D"/>
<path d="M537.239 91.0201H534.436V95.5063H537.239V91.0201Z" fill="#3FD78D"/>
<path d="M546.772 89.8986H543.968V94.3848H546.772V89.8986Z" fill="#3FD78D"/>
<path d="M551.821 89.8986H549.017V94.3848H551.821V89.8986Z" fill="#3FD78D"/>
<path d="M551.821 103.357H549.017V107.843H551.821V103.357Z" fill="#3FD78D"/>
<path d="M557.428 96.6278H554.624V101.114H557.428V96.6278Z" fill="#3FD78D"/>
<path d="M557.428 103.918H554.624V108.404H557.428V103.918Z" fill="#3FD78D"/>
<path d="M551.821 117.938H549.017V122.424H551.821V117.938Z" fill="#3FD78D"/>
<path d="M557.428 125.228H554.624V129.714H557.428V125.228Z" fill="#3FD78D"/>
<path d="M551.821 152.706H549.017V157.192H551.821V152.706Z" fill="#3FD78D"/>
<path d="M546.772 125.228H543.968V129.714H546.772V125.228Z" fill="#3FD78D"/>
<path d="M537.239 98.3102H534.436V102.796H537.239V98.3102Z" fill="#3FD78D"/>
<path d="M537.239 168.408H534.436V172.894H537.239V168.408Z" fill="#3FD78D"/>
<path d="M537.239 182.988H534.436V187.474H537.239V182.988Z" fill="#3FD78D"/>
<path d="M537.239 190.278H534.436V194.765H537.239V190.278Z" fill="#3FD78D"/>
<path d="M537.24 106.161H533.314V106.722H537.24V106.161Z" fill="#3FD78D"/>
<path d="M552.381 112.891H548.455V113.451H552.381V112.891Z" fill="#3FD78D"/>
<path d="M537.24 142.051H533.314V142.612H537.24V142.051Z" fill="#3FD78D"/>
<path d="M537.24 148.22H533.314V148.78H537.24V148.22Z" fill="#3FD78D"/>
<path d="M552.381 184.11H548.455V184.67H552.381V184.11Z" fill="#3FD78D"/>
<path d="M547.893 197.568H543.968V198.129H547.893V197.568Z" fill="#3FD78D"/>
<path d="M534.436 111.208V112.33H535.557V114.573H534.436V115.694H537.239V111.208H534.436Z" fill="#3FD78D"/>
<path d="M543.968 103.357V104.479H545.089V106.722H543.968V107.843H546.772V103.357H543.968Z" fill="#3FD78D"/>
<path d="M554.624 110.647V111.769H555.745V114.012H554.624V115.134H557.428V110.647H554.624Z" fill="#3FD78D"/>
<path d="M554.624 132.518V133.639H555.745V135.883H554.624V137.004H557.428V132.518H554.624Z" fill="#3FD78D"/>
<path d="M554.624 139.808V140.93H555.745V143.173H554.624V144.294H557.428V139.808H554.624Z" fill="#3FD78D"/>
<path d="M554.624 117.377V118.498H555.745V120.741H554.624V121.863H557.428V117.377H554.624Z" fill="#3FD78D"/>
<path d="M549.017 96.6277V97.7495H550.138V99.9923H549.017V101.114H551.82V96.6277H549.017Z" fill="#3FD78D"/>
<path d="M551.821 132.518H549.017V137.004H551.821V132.518Z" fill="#3FD78D"/>
<path d="M551.821 145.977H549.017V150.463H551.821V145.977Z" fill="#3FD78D"/>
<path d="M549.017 139.247V140.369H550.138V142.612H549.017V143.733H551.82V139.247H549.017Z" fill="#3FD78D"/>
<path d="M543.968 110.647V111.769H545.089V114.012H543.968V115.134H546.772V110.647H543.968Z" fill="#3FD78D"/>
<path d="M543.968 117.938V119.059H545.089V121.302H543.968V122.424H546.772V117.938H543.968Z" fill="#3FD78D"/>
<path d="M546.772 139.808H543.968V144.294H546.772V139.808Z" fill="#3FD78D"/>
<path d="M543.968 132.518V133.639H545.089V135.883H543.968V137.004H546.772V132.518H543.968Z" fill="#3FD78D"/>
<path d="M546.772 154.388H543.968V158.874H546.772V154.388Z" fill="#3FD78D"/>
<path d="M543.968 147.098V148.219H545.089V150.463H543.968V151.584H546.772V147.098H543.968Z" fill="#3FD78D"/>
<path d="M546.772 168.969H543.968V173.455H546.772V168.969Z" fill="#3FD78D"/>
<path d="M551.821 167.847H549.017V172.333H551.821V167.847Z" fill="#3FD78D"/>
<path d="M543.968 161.678V162.8H545.089V165.043H543.968V166.165H546.772V161.678H543.968Z" fill="#3FD78D"/>
<path d="M554.624 161.678V162.8H555.745V165.043H554.624V166.165H557.428V161.678H554.624Z" fill="#3FD78D"/>
<path d="M586.029 96.6278H583.225V101.114H586.029V96.6278Z" fill="#3FD78D"/>
<path d="M586.029 103.918H583.225V108.404H586.029V103.918Z" fill="#3FD78D"/>
<path d="M586.029 125.228H583.225V129.714H586.029V125.228Z" fill="#3FD78D"/>
<path d="M583.225 110.647V111.769H584.346V114.012H583.225V115.134H586.028V110.647H583.225Z" fill="#3FD78D"/>
<path d="M583.225 132.518V133.639H584.346V135.883H583.225V137.004H586.028V132.518H583.225Z" fill="#3FD78D"/>
<path d="M583.225 139.808V140.93H584.346V143.173H583.225V144.294H586.028V139.808H583.225Z" fill="#3FD78D"/>
<path d="M583.225 117.377V118.498H584.346V120.741H583.225V121.863H586.028V117.377H583.225Z" fill="#3FD78D"/>
<path d="M583.225 161.678V162.8H584.346V165.043H583.225V166.165H586.028V161.678H583.225Z" fill="#3FD78D"/>
<path d="M546.772 183.549H543.968V188.035H546.772V183.549Z" fill="#3FD78D"/>
<path d="M551.821 175.137H549.017V179.623H551.821V175.137Z" fill="#3FD78D"/>
<path d="M546.772 202.615H543.968V207.102H546.772V202.615Z" fill="#3FD78D"/>
<path d="M551.821 189.157H549.017V193.643H551.821V189.157Z" fill="#3FD78D"/>
<path d="M543.968 176.259V177.38H545.089V179.623H543.968V180.745H546.772V176.259H543.968Z" fill="#3FD78D"/>
<path d="M543.968 210.466V211.588H545.089V213.831H543.968V214.952H546.772V210.466H543.968Z" fill="#3FD78D"/>
<path d="M577.615 89.8986H574.812V94.3848H577.615V89.8986Z" fill="#3FD78D"/>
<path d="M577.615 125.228H574.812V129.714H577.615V125.228Z" fill="#3FD78D"/>
<path d="M578.737 197.568H574.812V198.129H578.737V197.568Z" fill="#3FD78D"/>
<path d="M574.812 103.357V104.479H575.933V106.722H574.812V107.843H577.615V103.357H574.812Z" fill="#3FD78D"/>
<path d="M574.812 110.647V111.769H575.933V114.012H574.812V115.134H577.615V110.647H574.812Z" fill="#3FD78D"/>
<path d="M574.812 117.938V119.059H575.933V121.302H574.812V122.424H577.615V117.938H574.812Z" fill="#3FD78D"/>
<path d="M577.615 139.808H574.812V144.294H577.615V139.808Z" fill="#3FD78D"/>
<path d="M574.812 132.518V133.639H575.933V135.883H574.812V137.004H577.615V132.518H574.812Z" fill="#3FD78D"/>
<path d="M577.615 154.388H574.812V158.874H577.615V154.388Z" fill="#3FD78D"/>
<path d="M574.812 147.098V148.219H575.933V150.463H574.812V151.584H577.615V147.098H574.812Z" fill="#3FD78D"/>
<path d="M577.615 168.969H574.812V173.455H577.615V168.969Z" fill="#3FD78D"/>
<path d="M574.812 161.678V162.8H575.933V165.043H574.812V166.165H577.615V161.678H574.812Z" fill="#3FD78D"/>
<path d="M577.615 183.549H574.812V188.035H577.615V183.549Z" fill="#3FD78D"/>
<path d="M577.615 202.615H574.812V207.102H577.615V202.615Z" fill="#3FD78D"/>
<path d="M574.812 176.259V177.38H575.933V179.623H574.812V180.745H577.615V176.259H574.812Z" fill="#3FD78D"/>
<path d="M574.812 210.466V211.588H575.933V213.831H574.812V214.952H577.615V210.466H574.812Z" fill="#3FD78D"/>
<path d="M591.075 89.8986H588.271V94.3848H591.075V89.8986Z" fill="#3FD78D"/>
<path d="M591.075 125.228H588.271V129.714H591.075V125.228Z" fill="#3FD78D"/>
<path d="M592.197 197.568H588.271V198.129H592.197V197.568Z" fill="#3FD78D"/>
<path d="M588.271 103.357V104.479H589.393V106.722H588.271V107.843H591.075V103.357H588.271Z" fill="#3FD78D"/>
<path d="M588.271 110.647V111.769H589.393V114.012H588.271V115.134H591.075V110.647H588.271Z" fill="#3FD78D"/>
<path d="M588.271 117.938V119.059H589.393V121.302H588.271V122.424H591.075V117.938H588.271Z" fill="#3FD78D"/>
<path d="M591.075 139.808H588.271V144.294H591.075V139.808Z" fill="#3FD78D"/>
<path d="M588.271 132.518V133.639H589.393V135.883H588.271V137.004H591.075V132.518H588.271Z" fill="#3FD78D"/>
<path d="M591.075 154.388H588.271V158.874H591.075V154.388Z" fill="#3FD78D"/>
<path d="M588.271 147.098V148.219H589.393V150.463H588.271V151.584H591.075V147.098H588.271Z" fill="#3FD78D"/>
<path d="M591.075 168.969H588.271V173.455H591.075V168.969Z" fill="#3FD78D"/>
<path d="M588.271 161.678V162.8H589.393V165.043H588.271V166.165H591.075V161.678H588.271Z" fill="#3FD78D"/>
<path d="M591.075 183.549H588.271V188.035H591.075V183.549Z" fill="#3FD78D"/>
<path d="M591.075 202.615H588.271V207.102H591.075V202.615Z" fill="#3FD78D"/>
<path d="M588.271 176.259V177.38H589.393V179.623H588.271V180.745H591.075V176.259H588.271Z" fill="#3FD78D"/>
<path d="M588.271 210.466V211.588H589.393V213.831H588.271V214.952H591.075V210.466H588.271Z" fill="#3FD78D"/>
<path d="M549.017 202.615V203.737H550.138V205.98H549.017V207.101H551.82V202.615H549.017Z" fill="#3FD78D"/>
<path d="M549.017 209.906V211.027H550.138V213.27H549.017V214.392H551.82V209.906H549.017Z" fill="#3FD78D"/>
<path d="M534.436 125.228V126.349H535.557V128.592H534.436V129.714H537.239V125.228H534.436Z" fill="#3FD78D"/>
<path d="M534.436 153.828V154.949H535.557V157.192H534.436V158.314H537.239V153.828H534.436Z" fill="#3FD78D"/>
<path d="M534.436 161.118V162.239H535.557V164.483H534.436V165.604H537.239V161.118H534.436Z" fill="#3FD78D"/>
<path d="M534.436 175.698V176.819H535.557V179.063H534.436V180.184H537.239V175.698H534.436Z" fill="#3FD78D"/>
<path d="M534.436 196.447V197.568H535.557V199.812H534.436V200.933H537.239V196.447H534.436Z" fill="#3FD78D"/>
<path d="M534.436 202.615V203.737H535.557V205.98H534.436V207.101H537.239V202.615H534.436Z" fill="#3FD78D"/>
<path d="M566.401 91.0201H563.597V95.5063H566.401V91.0201Z" fill="#3FD78D"/>
<path d="M566.401 98.3102H563.597V102.796H566.401V98.3102Z" fill="#3FD78D"/>
<path d="M566.4 106.161H562.475V106.722H566.4V106.161Z" fill="#3FD78D"/>
<path d="M566.4 142.051H562.475V142.612H566.4V142.051Z" fill="#3FD78D"/>
<path d="M566.4 148.22H562.475V148.78H566.4V148.22Z" fill="#3FD78D"/>
<path d="M563.597 111.208V112.33H564.718V114.573H563.597V115.694H566.401V111.208H563.597Z" fill="#3FD78D"/>
<path d="M563.597 125.228V126.349H564.718V128.592H563.597V129.714H566.401V125.228H563.597Z" fill="#3FD78D"/>
<path d="M563.597 153.828V154.949H564.718V157.192H563.597V158.314H566.401V153.828H563.597Z" fill="#3FD78D"/>
<path d="M598.365 139.808H595.562V144.294H598.365V139.808Z" fill="#3FD78D"/>
<path d="M598.365 147.098H595.562V151.584H598.365V147.098Z" fill="#3FD78D"/>
<path d="M598.365 154.949H594.439V155.51H598.365V154.949Z" fill="#3FD78D"/>
<path d="M598.365 190.839H594.439V191.4H598.365V190.839Z" fill="#3FD78D"/>
<path d="M598.365 197.008H594.439V197.568H598.365V197.008Z" fill="#3FD78D"/>
<path d="M595.562 159.996V161.118H596.683V163.361H595.562V164.482H598.365V159.996H595.562Z" fill="#3FD78D"/>
<path d="M595.562 174.016V175.137H596.683V177.38H595.562V178.502H598.365V174.016H595.562Z" fill="#3FD78D"/>
<path d="M595.562 202.615V203.737H596.683V205.98H595.562V207.101H598.365V202.615H595.562Z" fill="#3FD78D"/>
<path d="M607.338 91.0201H604.534V95.5063H607.338V91.0201Z" fill="#3FD78D"/>
<path d="M616.869 89.8986H614.065V94.3848H616.869V89.8986Z" fill="#3FD78D"/>
<path d="M621.916 89.8986H619.112V94.3848H621.916V89.8986Z" fill="#3FD78D"/>
<path d="M621.916 103.357H619.112V107.843H621.916V103.357Z" fill="#3FD78D"/>
<path d="M627.527 96.6278H624.723V101.114H627.527V96.6278Z" fill="#3FD78D"/>
<path d="M627.527 103.918H624.723V108.404H627.527V103.918Z" fill="#3FD78D"/>
<path d="M621.916 117.938H619.112V122.424H621.916V117.938Z" fill="#3FD78D"/>
<path d="M627.527 125.228H624.723V129.714H627.527V125.228Z" fill="#3FD78D"/>
<path d="M621.916 152.706H619.112V157.192H621.916V152.706Z" fill="#3FD78D"/>
<path d="M616.869 125.228H614.065V129.714H616.869V125.228Z" fill="#3FD78D"/>
<path d="M607.338 98.3102H604.534V102.796H607.338V98.3102Z" fill="#3FD78D"/>
<path d="M607.338 168.408H604.534V172.894H607.338V168.408Z" fill="#3FD78D"/>
<path d="M607.338 182.988H604.534V187.474H607.338V182.988Z" fill="#3FD78D"/>
<path d="M607.338 190.278H604.534V194.765H607.338V190.278Z" fill="#3FD78D"/>
<path d="M607.338 106.161H603.412V106.722H607.338V106.161Z" fill="#3FD78D"/>
<path d="M622.477 112.891H618.552V113.451H622.477V112.891Z" fill="#3FD78D"/>
<path d="M607.338 142.051H603.412V142.612H607.338V142.051Z" fill="#3FD78D"/>
<path d="M607.338 148.22H603.412V148.78H607.338V148.22Z" fill="#3FD78D"/>
<path d="M622.477 184.11H618.552V184.67H622.477V184.11Z" fill="#3FD78D"/>
<path d="M617.991 197.568H614.065V198.129H617.991V197.568Z" fill="#3FD78D"/>
<path d="M604.534 111.208V112.33H605.656V114.573H604.534V115.694H607.338V111.208H604.534Z" fill="#3FD78D"/>
<path d="M614.065 103.357V104.479H615.187V106.722H614.065V107.843H616.869V103.357H614.065Z" fill="#3FD78D"/>
<path d="M624.723 110.647V111.769H625.844V114.012H624.723V115.134H627.527V110.647H624.723Z" fill="#3FD78D"/>
<path d="M624.723 132.518V133.639H625.844V135.883H624.723V137.004H627.527V132.518H624.723Z" fill="#3FD78D"/>
<path d="M624.723 139.808V140.93H625.844V143.173H624.723V144.294H627.527V139.808H624.723Z" fill="#3FD78D"/>
<path d="M624.723 117.377V118.498H625.844V120.741H624.723V121.863H627.527V117.377H624.723Z" fill="#3FD78D"/>
<path d="M619.114 96.6277V97.7495H620.236V99.9923H619.114V101.114H621.918V96.6277H619.114Z" fill="#3FD78D"/>
<path d="M621.916 132.518H619.112V137.004H621.916V132.518Z" fill="#3FD78D"/>
<path d="M621.916 145.977H619.112V150.463H621.916V145.977Z" fill="#3FD78D"/>
<path d="M619.114 139.247V140.369H620.236V142.612H619.114V143.733H621.918V139.247H619.114Z" fill="#3FD78D"/>
<path d="M614.065 110.647V111.769H615.187V114.012H614.065V115.134H616.869V110.647H614.065Z" fill="#3FD78D"/>
<path d="M614.065 117.938V119.059H615.187V121.302H614.065V122.424H616.869V117.938H614.065Z" fill="#3FD78D"/>
<path d="M616.869 139.808H614.065V144.294H616.869V139.808Z" fill="#3FD78D"/>
<path d="M614.065 132.518V133.639H615.187V135.883H614.065V137.004H616.869V132.518H614.065Z" fill="#3FD78D"/>
<path d="M616.869 154.388H614.065V158.874H616.869V154.388Z" fill="#3FD78D"/>
<path d="M614.065 147.098V148.219H615.187V150.463H614.065V151.584H616.869V147.098H614.065Z" fill="#3FD78D"/>
<path d="M616.869 168.969H614.065V173.455H616.869V168.969Z" fill="#3FD78D"/>
<path d="M621.916 167.847H619.112V172.333H621.916V167.847Z" fill="#3FD78D"/>
<path d="M614.065 161.678V162.8H615.187V165.043H614.065V166.165H616.869V161.678H614.065Z" fill="#3FD78D"/>
<path d="M624.723 161.678V162.8H625.844V165.043H624.723V166.165H627.527V161.678H624.723Z" fill="#3FD78D"/>
<path d="M656.126 96.6278H653.322V101.114H656.126V96.6278Z" fill="#3FD78D"/>
<path d="M656.126 103.918H653.322V108.404H656.126V103.918Z" fill="#3FD78D"/>
<path d="M656.126 125.228H653.322V129.714H656.126V125.228Z" fill="#3FD78D"/>
<path d="M653.322 110.647V111.769H654.444V114.012H653.322V115.134H656.126V110.647H653.322Z" fill="#3FD78D"/>
<path d="M653.322 132.518V133.639H654.444V135.883H653.322V137.004H656.126V132.518H653.322Z" fill="#3FD78D"/>
<path d="M653.322 139.808V140.93H654.444V143.173H653.322V144.294H656.126V139.808H653.322Z" fill="#3FD78D"/>
<path d="M653.322 117.377V118.498H654.444V120.741H653.322V121.863H656.126V117.377H653.322Z" fill="#3FD78D"/>
<path d="M653.322 161.678V162.8H654.444V165.043H653.322V166.165H656.126V161.678H653.322Z" fill="#3FD78D"/>
<path d="M616.869 183.549H614.065V188.035H616.869V183.549Z" fill="#3FD78D"/>
<path d="M621.916 175.137H619.112V179.623H621.916V175.137Z" fill="#3FD78D"/>
<path d="M616.869 202.615H614.065V207.102H616.869V202.615Z" fill="#3FD78D"/>
<path d="M621.916 189.157H619.112V193.643H621.916V189.157Z" fill="#3FD78D"/>
<path d="M614.065 176.259V177.38H615.187V179.623H614.065V180.745H616.869V176.259H614.065Z" fill="#3FD78D"/>
<path d="M614.065 210.466V211.588H615.187V213.831H614.065V214.952H616.869V210.466H614.065Z" fill="#3FD78D"/>
<path d="M647.714 89.8986H644.91V94.3848H647.714V89.8986Z" fill="#3FD78D"/>
<path d="M647.714 125.228H644.91V129.714H647.714V125.228Z" fill="#3FD78D"/>
<path d="M648.836 197.568H644.91V198.129H648.836V197.568Z" fill="#3FD78D"/>
<path d="M644.91 103.357V104.479H646.032V106.722H644.91V107.843H647.714V103.357H644.91Z" fill="#3FD78D"/>
<path d="M644.91 110.647V111.769H646.032V114.012H644.91V115.134H647.714V110.647H644.91Z" fill="#3FD78D"/>
<path d="M644.91 117.938V119.059H646.032V121.302H644.91V122.424H647.714V117.938H644.91Z" fill="#3FD78D"/>
<path d="M647.714 139.808H644.91V144.294H647.714V139.808Z" fill="#3FD78D"/>
<path d="M644.91 132.518V133.639H646.032V135.883H644.91V137.004H647.714V132.518H644.91Z" fill="#3FD78D"/>
<path d="M647.714 154.388H644.91V158.874H647.714V154.388Z" fill="#3FD78D"/>
<path d="M644.91 147.098V148.219H646.032V150.463H644.91V151.584H647.714V147.098H644.91Z" fill="#3FD78D"/>
<path d="M647.714 168.969H644.91V173.455H647.714V168.969Z" fill="#3FD78D"/>
<path d="M644.91 161.678V162.8H646.032V165.043H644.91V166.165H647.714V161.678H644.91Z" fill="#3FD78D"/>
<path d="M647.714 183.549H644.91V188.035H647.714V183.549Z" fill="#3FD78D"/>
<path d="M647.714 202.615H644.91V207.102H647.714V202.615Z" fill="#3FD78D"/>
<path d="M644.91 176.259V177.38H646.032V179.623H644.91V180.745H647.714V176.259H644.91Z" fill="#3FD78D"/>
<path d="M644.91 210.466V211.588H646.032V213.831H644.91V214.952H647.714V210.466H644.91Z" fill="#3FD78D"/>
<path d="M661.173 89.8986H658.369V94.3848H661.173V89.8986Z" fill="#3FD78D"/>
<path d="M661.173 125.228H658.369V129.714H661.173V125.228Z" fill="#3FD78D"/>
<path d="M662.295 197.568H658.369V198.129H662.295V197.568Z" fill="#3FD78D"/>
<path d="M658.369 103.357V104.479H659.491V106.722H658.369V107.843H661.173V103.357H658.369Z" fill="#3FD78D"/>
<path d="M658.369 110.647V111.769H659.491V114.012H658.369V115.134H661.173V110.647H658.369Z" fill="#3FD78D"/>
<path d="M658.369 117.938V119.059H659.491V121.302H658.369V122.424H661.173V117.938H658.369Z" fill="#3FD78D"/>
<path d="M661.173 139.808H658.369V144.294H661.173V139.808Z" fill="#3FD78D"/>
<path d="M658.369 132.518V133.639H659.491V135.883H658.369V137.004H661.173V132.518H658.369Z" fill="#3FD78D"/>
<path d="M661.173 154.388H658.369V158.874H661.173V154.388Z" fill="#3FD78D"/>
<path d="M658.369 147.098V148.219H659.491V150.463H658.369V151.584H661.173V147.098H658.369Z" fill="#3FD78D"/>
<path d="M661.173 168.969H658.369V173.455H661.173V168.969Z" fill="#3FD78D"/>
<path d="M658.369 161.678V162.8H659.491V165.043H658.369V166.165H661.173V161.678H658.369Z" fill="#3FD78D"/>
<path d="M661.173 183.549H658.369V188.035H661.173V183.549Z" fill="#3FD78D"/>
<path d="M661.173 202.615H658.369V207.102H661.173V202.615Z" fill="#3FD78D"/>
<path d="M658.369 176.259V177.38H659.491V179.623H658.369V180.745H661.173V176.259H658.369Z" fill="#3FD78D"/>
<path d="M658.369 210.466V211.588H659.491V213.831H658.369V214.952H661.173V210.466H658.369Z" fill="#3FD78D"/>
<path d="M619.114 202.615V203.737H620.236V205.98H619.114V207.101H621.918V202.615H619.114Z" fill="#3FD78D"/>
<path d="M619.114 209.906V211.027H620.236V213.27H619.114V214.392H621.918V209.906H619.114Z" fill="#3FD78D"/>
<path d="M604.534 125.228V126.349H605.656V128.592H604.534V129.714H607.338V125.228H604.534Z" fill="#3FD78D"/>
<path d="M604.534 153.828V154.949H605.656V157.192H604.534V158.314H607.338V153.828H604.534Z" fill="#3FD78D"/>
<path d="M604.534 161.118V162.239H605.656V164.483H604.534V165.604H607.338V161.118H604.534Z" fill="#3FD78D"/>
<path d="M604.534 175.698V176.819H605.656V179.063H604.534V180.184H607.338V175.698H604.534Z" fill="#3FD78D"/>
<path d="M604.534 196.447V197.568H605.656V199.812H604.534V200.933H607.338V196.447H604.534Z" fill="#3FD78D"/>
<path d="M604.534 202.615V203.737H605.656V205.98H604.534V207.101H607.338V202.615H604.534Z" fill="#3FD78D"/>
<path d="M636.499 91.0201H633.695V95.5063H636.499V91.0201Z" fill="#3FD78D"/>
<path d="M636.499 98.3102H633.695V102.796H636.499V98.3102Z" fill="#3FD78D"/>
<path d="M636.498 106.161H632.572V106.722H636.498V106.161Z" fill="#3FD78D"/>
<path d="M636.498 142.051H632.572V142.612H636.498V142.051Z" fill="#3FD78D"/>
<path d="M636.498 148.22H632.572V148.78H636.498V148.22Z" fill="#3FD78D"/>
<path d="M633.695 111.208V112.33H634.817V114.573H633.695V115.694H636.499V111.208H633.695Z" fill="#3FD78D"/>
<path d="M633.695 125.228V126.349H634.817V128.592H633.695V129.714H636.499V125.228H633.695Z" fill="#3FD78D"/>
<path d="M633.695 153.828V154.949H634.817V157.192H633.695V158.314H636.499V153.828H633.695Z" fill="#3FD78D"/>
<path d="M668.462 139.808H665.658V144.294H668.462V139.808Z" fill="#3FD78D"/>
<path d="M668.462 147.098H665.658V151.584H668.462V147.098Z" fill="#3FD78D"/>
<path d="M668.463 154.949H664.537V155.51H668.463V154.949Z" fill="#3FD78D"/>
<path d="M668.463 190.839H664.537V191.4H668.463V190.839Z" fill="#3FD78D"/>
<path d="M668.463 197.008H664.537V197.568H668.463V197.008Z" fill="#3FD78D"/>
<path d="M665.658 159.996V161.118H666.78V163.361H665.658V164.482H668.462V159.996H665.658Z" fill="#3FD78D"/>
<path d="M665.658 174.016V175.137H666.78V177.38H665.658V178.502H668.462V174.016H665.658Z" fill="#3FD78D"/>
<path d="M665.658 202.615V203.737H666.78V205.98H665.658V207.101H668.462V202.615H665.658Z" fill="#3FD78D"/>
</g>
<path d="M581.647 149.337H580.92V166.416H581.647V149.337Z" fill="white"/>
</svg>